<svg width="62" height="72" viewBox="0 0 62 72" fill="none" xmlns="http://www.w3.org/2000/svg">
<g clip-path="url(#clip0)">
<path d="M13.6777 18.6777C23.4408 8.91456 39.2699 8.91456 49.033 18.6777V18.6777C58.7961 28.4408 58.7961 44.2699 49.033 54.033L31.3553 71.7107L13.6777 54.033C3.91457 44.2699 3.91457 28.4408 13.6777 18.6777V18.6777Z" fill="#DA5C5C"/>
<path d="M21.9178 21.9262C21.7299 21.9019 21.535 21.9177 21.3425 21.9795C20.5683 22.2265 20.1241 23.1187 20.3486 23.9689C21.2599 27.4209 23.4106 30.1841 26.1242 31.7513V42.77V44.3741V52.3946C26.1242 53.28 26.7774 53.9986 27.5823 53.9986C28.3872 53.9986 29.0404 53.28 29.0404 52.3946V44.3741H33.4148V52.3946C33.4148 53.28 34.068 53.9986 34.8729 53.9986C35.6778 53.9986 36.331 53.28 36.331 52.3946V44.3741V42.77V31.7638C39.0665 30.1918 41.2156 27.4163 42.1094 23.9595C42.3296 23.1093 41.8799 22.2185 41.1041 21.9763C40.3299 21.7357 39.5216 22.2305 39.3014 23.0823C38.3143 26.8984 35.3328 29.6485 31.8741 29.9373H31.6519C27.8156 30.1394 24.2664 27.2932 23.1509 23.0729C22.9825 22.434 22.4816 21.9991 21.9178 21.9262ZM31.2703 21.9544C29.6591 21.9544 28.3541 23.378 28.3541 25.1312C28.3541 26.8845 29.6591 28.305 31.2703 28.305C32.8815 28.305 34.1866 26.8845 34.1866 25.1312C34.1866 23.378 32.8815 21.9544 31.2703 21.9544Z" fill="white"/>
</g>
<defs>
<clipPath id="clip0">
<rect width="62" height="72" fill="white"/>
</clipPath>
</defs>
</svg>
